<?xml version="1.0" encoding="UTF-8" standalone="no"?>
<!DOCTYPE svg PUBLIC "-//W3C//DTD SVG 1.1//EN"
 "http://www.w3.org/Graphics/SVG/1.1/DTD/svg11.dtd">
<!-- Generated by graphviz version 2.44.1 (20200629.0846)
 -->
<!-- Title: dependencies Pages: 1 -->
<svg width="4176pt" height="290pt"
 viewBox="0.00 0.00 4176.00 290.00" xmlns="http://www.w3.org/2000/svg" xmlns:xlink="http://www.w3.org/1999/xlink">
<g id="graph0" class="graph" transform="scale(1 1) rotate(0) translate(4 286)">
<title>dependencies</title>
<polygon fill="white" stroke="transparent" points="-4,4 -4,-286 4172,-286 4172,4 -4,4"/>
<text text-anchor="start" x="2063.01" y="-42.4" font-family="sans-serif" font-weight="bold" font-size="14.00">Legend</text>
<polygon fill="#ffffb3" stroke="transparent" points="1850,-10 1850,-30 1870,-30 1870,-10 1850,-10"/>
<text text-anchor="start" x="1873.63" y="-15.4" font-family="sans-serif" font-size="14.00"> &#160;Declarations</text>
<polygon fill="#8dd3c7" stroke="transparent" points="1963,-10 1963,-30 1983,-30 1983,-10 1963,-10"/>
<text text-anchor="start" x="1986.73" y="-15.4" font-family="sans-serif" font-size="14.00"> &#160;Module</text>
<polygon fill="#80b1d3" stroke="transparent" points="2049,-10 2049,-30 2069,-30 2069,-10 2049,-10"/>
<text text-anchor="start" x="2072.78" y="-15.4" font-family="sans-serif" font-size="14.00"> &#160;Bootstrap</text>
<polygon fill="#fdb462" stroke="transparent" points="2146,-10 2146,-30 2166,-30 2166,-10 2146,-10"/>
<text text-anchor="start" x="2169.67" y="-15.4" font-family="sans-serif" font-size="14.00"> &#160;Providers</text>
<polygon fill="#fb8072" stroke="transparent" points="2242,-10 2242,-30 2262,-30 2262,-10 2242,-10"/>
<text text-anchor="start" x="2265.73" y="-15.4" font-family="sans-serif" font-size="14.00"> &#160;Exports</text>
<g id="clust1" class="cluster">
<title>cluster_AppModule</title>
<polygon fill="none" stroke="black" stroke-dasharray="1,5" points="8,-70 8,-274 3046,-274 3046,-70 8,-70"/>
</g>
<g id="clust2" class="cluster">
<title>cluster_AppModule_declarations</title>
<polygon fill="none" stroke="black" points="512,-78 512,-130 2769,-130 2769,-78 512,-78"/>
</g>
<g id="clust18" class="cluster">
<title>cluster_AppModule_imports</title>
<polygon fill="none" stroke="black" points="2777,-78 2777,-130 3038,-130 3038,-78 2777,-78"/>
</g>
<g id="clust20" class="cluster">
<title>cluster_AppModule_bootstrap</title>
<polygon fill="none" stroke="black" points="1556,-214 1556,-266 1680,-266 1680,-214 1556,-214"/>
</g>
<g id="clust21" class="cluster">
<title>cluster_AppModule_providers</title>
<polygon fill="none" stroke="black" points="16,-78 16,-130 504,-130 504,-78 16,-78"/>
</g>
<g id="clust28" class="cluster">
<title>cluster_AuthModule</title>
<polygon fill="none" stroke="black" stroke-dasharray="1,5" points="3366,-70 3366,-198 3814,-198 3814,-70 3366,-70"/>
</g>
<g id="clust29" class="cluster">
<title>cluster_AuthModule_declarations</title>
<polygon fill="none" stroke="black" points="3530,-78 3530,-130 3806,-130 3806,-78 3530,-78"/>
</g>
<g id="clust32" class="cluster">
<title>cluster_AuthModule_imports</title>
<polygon fill="none" stroke="black" points="3374,-78 3374,-130 3522,-130 3522,-78 3374,-78"/>
</g>
<g id="clust42" class="cluster">
<title>cluster_DashboardModule</title>
<polygon fill="none" stroke="black" stroke-dasharray="1,5" points="3822,-70 3822,-274 4160,-274 4160,-70 3822,-70"/>
</g>
<g id="clust43" class="cluster">
<title>cluster_DashboardModule_declarations</title>
<polygon fill="none" stroke="black" points="4020,-78 4020,-130 4152,-130 4152,-78 4020,-78"/>
</g>
<g id="clust45" class="cluster">
<title>cluster_DashboardModule_imports</title>
<polygon fill="none" stroke="black" points="3830,-78 3830,-130 4012,-130 4012,-78 3830,-78"/>
</g>
<g id="clust47" class="cluster">
<title>cluster_DashboardModule_bootstrap</title>
<polygon fill="none" stroke="black" points="3915,-214 3915,-266 4077,-266 4077,-214 3915,-214"/>
</g>
<g id="clust55" class="cluster">
<title>cluster_ThemeModule</title>
<polygon fill="none" stroke="black" stroke-dasharray="1,5" points="3054,-138 3054,-206 3358,-206 3358,-138 3054,-138"/>
</g>
<g id="clust56" class="cluster">
<title>cluster_ThemeModule_declarations</title>
<polygon fill="none" stroke="black" points="3212,-146 3212,-198 3350,-198 3350,-146 3212,-146"/>
</g>
<g id="clust59" class="cluster">
<title>cluster_ThemeModule_exports</title>
<polygon fill="none" stroke="black" points="3062,-146 3062,-198 3204,-198 3204,-146 3062,-146"/>
</g>
<!-- AppComponent -->
<g id="node1" class="node">
<title>AppComponent</title>
<polygon fill="#ffffb3" stroke="black" points="2760.94,-122 2655.06,-122 2655.06,-86 2760.94,-86 2760.94,-122"/>
<text text-anchor="middle" x="2708" y="-99.8" font-family="Times,serif" font-size="14.00">AppComponent</text>
</g>
<!-- AppModule -->
<g id="node16" class="node">
<title>AppModule</title>
<polygon fill="#8dd3c7" stroke="black" points="1659.66,-190 1656.66,-194 1635.66,-194 1632.66,-190 1576.34,-190 1576.34,-154 1659.66,-154 1659.66,-190"/>
<text text-anchor="middle" x="1618" y="-167.8" font-family="Times,serif" font-size="14.00">AppModule</text>
</g>
<!-- AppComponent&#45;&gt;AppModule -->
<g id="edge1" class="edge">
<title>AppComponent&#45;&gt;AppModule</title>
<path fill="none" stroke="black" d="M2708,-122.04C2708,-143.66 2708,-177 2708,-177 2708,-177 1669.73,-177 1669.73,-177"/>
<polygon fill="black" stroke="black" points="1669.73,-173.5 1659.73,-177 1669.73,-180.5 1669.73,-173.5"/>
</g>
<!-- CompetingComponent -->
<g id="node2" class="node">
<title>CompetingComponent</title>
<polygon fill="#ffffb3" stroke="black" points="2637.56,-122 2494.44,-122 2494.44,-86 2637.56,-86 2637.56,-122"/>
<text text-anchor="middle" x="2566" y="-99.8" font-family="Times,serif" font-size="14.00">CompetingComponent</text>
</g>
<!-- CompetingComponent&#45;&gt;AppModule -->
<g id="edge2" class="edge">
<title>CompetingComponent&#45;&gt;AppModule</title>
<path fill="none" stroke="black" d="M2566,-122.03C2566,-142.77 2566,-174 2566,-174 2566,-174 1669.96,-174 1669.96,-174"/>
<polygon fill="black" stroke="black" points="1669.96,-170.5 1659.96,-174 1669.96,-177.5 1669.96,-170.5"/>
</g>
<!-- ConfirmDialog -->
<g id="node3" class="node">
<title>ConfirmDialog</title>
<polygon fill="#ffffb3" stroke="black" points="2475.54,-122 2374.46,-122 2374.46,-86 2475.54,-86 2475.54,-122"/>
<text text-anchor="middle" x="2425" y="-99.8" font-family="Times,serif" font-size="14.00">ConfirmDialog</text>
</g>
<!-- ConfirmDialog&#45;&gt;AppModule -->
<g id="edge3" class="edge">
<title>ConfirmDialog&#45;&gt;AppModule</title>
<path fill="none" stroke="black" d="M2425,-122.31C2425,-142.15 2425,-171 2425,-171 2425,-171 1669.69,-171 1669.69,-171"/>
<polygon fill="black" stroke="black" points="1669.69,-167.5 1659.69,-171 1669.69,-174.5 1669.69,-167.5"/>
</g>
<!-- ContestlistComponent -->
<g id="node4" class="node">
<title>ContestlistComponent</title>
<polygon fill="#ffffb3" stroke="black" points="2356.73,-122 2215.27,-122 2215.27,-86 2356.73,-86 2356.73,-122"/>
<text text-anchor="middle" x="2286" y="-99.8" font-family="Times,serif" font-size="14.00">ContestlistComponent</text>
</g>
<!-- ContestlistComponent&#45;&gt;AppModule -->
<g id="edge4" class="edge">
<title>ContestlistComponent&#45;&gt;AppModule</title>
<path fill="none" stroke="black" d="M2286,-122.17C2286,-141.09 2286,-168 2286,-168 2286,-168 1669.79,-168 1669.79,-168"/>
<polygon fill="black" stroke="black" points="1669.79,-164.5 1659.79,-168 1669.79,-171.5 1669.79,-164.5"/>
</g>
<!-- ContestsComponent -->
<g id="node5" class="node">
<title>ContestsComponent</title>
<polygon fill="#ffffb3" stroke="black" points="2197.55,-122 2068.45,-122 2068.45,-86 2197.55,-86 2197.55,-122"/>
<text text-anchor="middle" x="2133" y="-99.8" font-family="Times,serif" font-size="14.00">ContestsComponent</text>
</g>
<!-- ContestsComponent&#45;&gt;AppModule -->
<g id="edge5" class="edge">
<title>ContestsComponent&#45;&gt;AppModule</title>
<path fill="none" stroke="black" d="M2133,-122C2133,-139.68 2133,-164 2133,-164 2133,-164 1669.71,-164 1669.71,-164"/>
<polygon fill="black" stroke="black" points="1669.71,-160.5 1659.71,-164 1669.71,-167.5 1669.71,-160.5"/>
</g>
<!-- DashboardComponent -->
<g id="node6" class="node">
<title>DashboardComponent</title>
<polygon fill="#ffffb3" stroke="black" points="2049.97,-122 1908.03,-122 1908.03,-86 2049.97,-86 2049.97,-122"/>
<text text-anchor="middle" x="1979" y="-99.8" font-family="Times,serif" font-size="14.00">DashboardComponent</text>
</g>
<!-- DashboardComponent&#45;&gt;AppModule -->
<g id="edge6" class="edge">
<title>DashboardComponent&#45;&gt;AppModule</title>
<path fill="none" stroke="black" d="M1979,-122.04C1979,-138.73 1979,-161 1979,-161 1979,-161 1669.76,-161 1669.76,-161"/>
<polygon fill="black" stroke="black" points="1669.76,-157.5 1659.76,-161 1669.76,-164.5 1669.76,-157.5"/>
</g>
<!-- FilelistComponent -->
<g id="node7" class="node">
<title>FilelistComponent</title>
<polygon fill="#ffffb3" stroke="black" points="1890.23,-122 1769.77,-122 1769.77,-86 1890.23,-86 1890.23,-122"/>
<text text-anchor="middle" x="1830" y="-99.8" font-family="Times,serif" font-size="14.00">FilelistComponent</text>
</g>
<!-- FilelistComponent&#45;&gt;AppModule -->
<g id="edge7" class="edge">
<title>FilelistComponent&#45;&gt;AppModule</title>
<path fill="none" stroke="black" d="M1830,-122.28C1830,-137.95 1830,-158 1830,-158 1830,-158 1669.88,-158 1669.88,-158"/>
<polygon fill="black" stroke="black" points="1669.88,-154.5 1659.88,-158 1669.88,-161.5 1669.88,-154.5"/>
</g>
<!-- HomeComponent -->
<g id="node8" class="node">
<title>HomeComponent</title>
<polygon fill="#ffffb3" stroke="black" points="1751.55,-122 1636.45,-122 1636.45,-86 1751.55,-86 1751.55,-122"/>
<text text-anchor="middle" x="1694" y="-99.8" font-family="Times,serif" font-size="14.00">HomeComponent</text>
</g>
<!-- HomeComponent&#45;&gt;AppModule -->
<g id="edge8" class="edge">
<title>HomeComponent&#45;&gt;AppModule</title>
<path fill="none" stroke="black" d="M1648.03,-122.22C1648.03,-122.22 1648.03,-143.73 1648.03,-143.73"/>
<polygon fill="black" stroke="black" points="1644.53,-143.73 1648.03,-153.73 1651.53,-143.73 1644.53,-143.73"/>
</g>
<!-- LeaderboardComponent -->
<g id="node9" class="node">
<title>LeaderboardComponent</title>
<polygon fill="#ffffb3" stroke="black" points="1618.06,-122 1465.94,-122 1465.94,-86 1618.06,-86 1618.06,-122"/>
<text text-anchor="middle" x="1542" y="-99.8" font-family="Times,serif" font-size="14.00">LeaderboardComponent</text>
</g>
<!-- LeaderboardComponent&#45;&gt;AppModule -->
<g id="edge9" class="edge">
<title>LeaderboardComponent&#45;&gt;AppModule</title>
<path fill="none" stroke="black" d="M1597.1,-122.22C1597.1,-122.22 1597.1,-143.73 1597.1,-143.73"/>
<polygon fill="black" stroke="black" points="1593.6,-143.73 1597.1,-153.73 1600.6,-143.73 1593.6,-143.73"/>
</g>
<!-- MainComponent -->
<g id="node10" class="node">
<title>MainComponent</title>
<polygon fill="#ffffb3" stroke="black" points="1448.38,-122 1337.62,-122 1337.62,-86 1448.38,-86 1448.38,-122"/>
<text text-anchor="middle" x="1393" y="-99.8" font-family="Times,serif" font-size="14.00">MainComponent</text>
</g>
<!-- MainComponent&#45;&gt;AppModule -->
<g id="edge10" class="edge">
<title>MainComponent&#45;&gt;AppModule</title>
<path fill="none" stroke="black" d="M1393,-122.28C1393,-137.95 1393,-158 1393,-158 1393,-158 1566.21,-158 1566.21,-158"/>
<polygon fill="black" stroke="black" points="1566.21,-161.5 1576.21,-158 1566.21,-154.5 1566.21,-161.5"/>
</g>
<!-- NewfiledialogComponent -->
<g id="node11" class="node">
<title>NewfiledialogComponent</title>
<polygon fill="#ffffb3" stroke="black" points="1319.91,-122 1158.09,-122 1158.09,-86 1319.91,-86 1319.91,-122"/>
<text text-anchor="middle" x="1239" y="-99.8" font-family="Times,serif" font-size="14.00">NewfiledialogComponent</text>
</g>
<!-- NewfiledialogComponent&#45;&gt;AppModule -->
<g id="edge11" class="edge">
<title>NewfiledialogComponent&#45;&gt;AppModule</title>
<path fill="none" stroke="black" d="M1239,-122.03C1239,-139.06 1239,-162 1239,-162 1239,-162 1565.99,-162 1565.99,-162"/>
<polygon fill="black" stroke="black" points="1565.99,-165.5 1575.99,-162 1565.99,-158.5 1565.99,-165.5"/>
</g>
<!-- ProblemComponent -->
<g id="node12" class="node">
<title>ProblemComponent</title>
<polygon fill="#ffffb3" stroke="black" points="1140.27,-122 1011.73,-122 1011.73,-86 1140.27,-86 1140.27,-122"/>
<text text-anchor="middle" x="1076" y="-99.8" font-family="Times,serif" font-size="14.00">ProblemComponent</text>
</g>
<!-- ProblemComponent&#45;&gt;AppModule -->
<g id="edge12" class="edge">
<title>ProblemComponent&#45;&gt;AppModule</title>
<path fill="none" stroke="black" d="M1076,-122.3C1076,-140.27 1076,-165 1076,-165 1076,-165 1565.92,-165 1565.92,-165"/>
<polygon fill="black" stroke="black" points="1565.92,-168.5 1575.92,-165 1565.92,-161.5 1565.92,-168.5"/>
</g>
<!-- ProblemlistComponent -->
<g id="node13" class="node">
<title>ProblemlistComponent</title>
<polygon fill="#ffffb3" stroke="black" points="993.89,-122 848.11,-122 848.11,-86 993.89,-86 993.89,-122"/>
<text text-anchor="middle" x="921" y="-99.8" font-family="Times,serif" font-size="14.00">ProblemlistComponent</text>
</g>
<!-- ProblemlistComponent&#45;&gt;AppModule -->
<g id="edge13" class="edge">
<title>ProblemlistComponent&#45;&gt;AppModule</title>
<path fill="none" stroke="black" d="M921,-122.11C921,-141.34 921,-169 921,-169 921,-169 1566.23,-169 1566.23,-169"/>
<polygon fill="black" stroke="black" points="1566.23,-172.5 1576.23,-169 1566.23,-165.5 1566.23,-172.5"/>
</g>
<!-- RenamefileDialog -->
<g id="node14" class="node">
<title>RenamefileDialog</title>
<polygon fill="#ffffb3" stroke="black" points="830.13,-122 711.87,-122 711.87,-86 830.13,-86 830.13,-122"/>
<text text-anchor="middle" x="771" y="-99.8" font-family="Times,serif" font-size="14.00">RenamefileDialog</text>
</g>
<!-- RenamefileDialog&#45;&gt;AppModule -->
<g id="edge14" class="edge">
<title>RenamefileDialog&#45;&gt;AppModule</title>
<path fill="none" stroke="black" d="M771,-122.22C771,-142.37 771,-172 771,-172 771,-172 1566.29,-172 1566.29,-172"/>
<polygon fill="black" stroke="black" points="1566.29,-175.5 1576.29,-172 1566.29,-168.5 1566.29,-175.5"/>
</g>
<!-- SubmissiontableComponent -->
<g id="node15" class="node">
<title>SubmissiontableComponent</title>
<polygon fill="#ffffb3" stroke="black" points="693.89,-122 520.11,-122 520.11,-86 693.89,-86 693.89,-122"/>
<text text-anchor="middle" x="607" y="-99.8" font-family="Times,serif" font-size="14.00">SubmissiontableComponent</text>
</g>
<!-- SubmissiontableComponent&#45;&gt;AppModule -->
<g id="edge15" class="edge">
<title>SubmissiontableComponent&#45;&gt;AppModule</title>
<path fill="none" stroke="black" d="M607,-122.17C607,-143.5 607,-176 607,-176 607,-176 1566.16,-176 1566.16,-176"/>
<polygon fill="black" stroke="black" points="1566.16,-179.5 1576.16,-176 1566.16,-172.5 1566.16,-179.5"/>
</g>
<!-- AppComponent  -->
<g id="node19" class="node">
<title>AppComponent </title>
<polygon fill="#80b1d3" stroke="black" points="1672.44,-258 1563.56,-258 1563.56,-222 1672.44,-222 1672.44,-258"/>
<text text-anchor="middle" x="1618" y="-235.8" font-family="Times,serif" font-size="14.00">AppComponent </text>
</g>
<!-- AppModule&#45;&gt;AppComponent  -->
<g id="edge18" class="edge">
<title>AppModule&#45;&gt;AppComponent </title>
<path fill="none" stroke="black" stroke-dasharray="1,5" d="M1618,-190.22C1618,-190.22 1618,-211.73 1618,-211.73"/>
<polygon fill="black" stroke="black" points="1614.5,-211.73 1618,-221.73 1621.5,-211.73 1614.5,-211.73"/>
</g>
<!-- AppRoutingModule -->
<g id="node17" class="node">
<title>AppRoutingModule</title>
<polygon fill="#8dd3c7" stroke="black" points="2913.27,-122 2910.27,-126 2889.27,-126 2886.27,-122 2784.73,-122 2784.73,-86 2913.27,-86 2913.27,-122"/>
<text text-anchor="middle" x="2849" y="-99.8" font-family="Times,serif" font-size="14.00">AppRoutingModule</text>
</g>
<!-- AppRoutingModule&#45;&gt;AppModule -->
<g id="edge16" class="edge">
<title>AppRoutingModule&#45;&gt;AppModule</title>
<path fill="none" stroke="black" d="M2849,-122.25C2849,-145.02 2849,-181 2849,-181 2849,-181 1669.66,-181 1669.66,-181"/>
<polygon fill="black" stroke="black" points="1669.66,-177.5 1659.66,-181 1669.66,-184.5 1669.66,-177.5"/>
</g>
<!-- ThemeModule -->
<g id="node18" class="node">
<title>ThemeModule</title>
<polygon fill="#8dd3c7" stroke="black" points="3030.42,-122 3027.42,-126 3006.42,-126 3003.42,-122 2931.58,-122 2931.58,-86 3030.42,-86 3030.42,-122"/>
<text text-anchor="middle" x="2981" y="-99.8" font-family="Times,serif" font-size="14.00">ThemeModule</text>
</g>
<!-- ThemeModule&#45;&gt;AppModule -->
<g id="edge17" class="edge">
<title>ThemeModule&#45;&gt;AppModule</title>
<path fill="none" stroke="black" d="M2964.6,-122.15C2964.6,-145.76 2964.6,-184 2964.6,-184 2964.6,-184 1669.78,-184 1669.78,-184"/>
<polygon fill="black" stroke="black" points="1669.78,-180.5 1659.78,-184 1669.78,-187.5 1669.78,-180.5"/>
</g>
<!-- HeaderComponent  -->
<g id="node32" class="node">
<title>HeaderComponent </title>
<polygon fill="#fb8072" stroke="black" points="3195.74,-190 3070.26,-190 3070.26,-154 3195.74,-154 3195.74,-190"/>
<text text-anchor="middle" x="3133" y="-167.8" font-family="Times,serif" font-size="14.00">HeaderComponent </text>
</g>
<!-- ThemeModule&#45;&gt;HeaderComponent  -->
<g id="edge29" class="edge">
<title>ThemeModule&#45;&gt;HeaderComponent </title>
<path fill="none" stroke="black" stroke-dasharray="5,2" d="M2997.4,-122.01C2997.4,-146.42 2997.4,-187 2997.4,-187 2997.4,-187 3060.36,-187 3060.36,-187"/>
<polygon fill="black" stroke="black" points="3060.36,-190.5 3070.36,-187 3060.36,-183.5 3060.36,-190.5"/>
</g>
<!-- CodeService -->
<g id="node20" class="node">
<title>CodeService</title>
<ellipse fill="#fdb462" stroke="black" cx="436" cy="-104" rx="60.25" ry="18"/>
<text text-anchor="middle" x="436" y="-99.8" font-family="Times,serif" font-size="14.00">CodeService</text>
</g>
<!-- CodeService&#45;&gt;AppModule -->
<g id="edge19" class="edge">
<title>CodeService&#45;&gt;AppModule</title>
<path fill="none" stroke="black" d="M436,-122.01C436,-144.49 436,-180 436,-180 436,-180 1566.28,-180 1566.28,-180"/>
<polygon fill="black" stroke="black" points="1566.28,-183.5 1576.28,-180 1566.28,-176.5 1566.28,-183.5"/>
</g>
<!-- CodefetchService -->
<g id="node21" class="node">
<title>CodefetchService</title>
<ellipse fill="#fdb462" stroke="black" cx="278" cy="-104" rx="79.85" ry="18"/>
<text text-anchor="middle" x="278" y="-99.8" font-family="Times,serif" font-size="14.00">CodefetchService</text>
</g>
<!-- CodefetchService&#45;&gt;AppModule -->
<g id="edge20" class="edge">
<title>CodefetchService&#45;&gt;AppModule</title>
<path fill="none" stroke="black" d="M278,-122.32C278,-145.66 278,-183 278,-183 278,-183 1566.06,-183 1566.06,-183"/>
<polygon fill="black" stroke="black" points="1566.06,-186.5 1576.06,-183 1566.06,-179.5 1566.06,-186.5"/>
</g>
<!-- TokenInterceptor -->
<g id="node22" class="node">
<title>TokenInterceptor</title>
<ellipse fill="#fdb462" stroke="black" cx="102" cy="-104" rx="78.13" ry="18"/>
<text text-anchor="middle" x="102" y="-99.8" font-family="Times,serif" font-size="14.00">TokenInterceptor</text>
</g>
<!-- TokenInterceptor&#45;&gt;AppModule -->
<g id="edge21" class="edge">
<title>TokenInterceptor&#45;&gt;AppModule</title>
<path fill="none" stroke="black" d="M102,-122.01C102,-146.42 102,-187 102,-187 102,-187 1566.27,-187 1566.27,-187"/>
<polygon fill="black" stroke="black" points="1566.27,-190.5 1576.27,-187 1566.27,-183.5 1566.27,-190.5"/>
</g>
<!-- LoginComponent -->
<g id="node23" class="node">
<title>LoginComponent</title>
<polygon fill="#ffffb3" stroke="black" points="3798.28,-122 3683.72,-122 3683.72,-86 3798.28,-86 3798.28,-122"/>
<text text-anchor="middle" x="3741" y="-99.8" font-family="Times,serif" font-size="14.00">LoginComponent</text>
</g>
<!-- AuthModule -->
<g id="node25" class="node">
<title>AuthModule</title>
<polygon fill="#8dd3c7" stroke="black" points="3645.55,-190 3642.55,-194 3621.55,-194 3618.55,-190 3558.45,-190 3558.45,-154 3645.55,-154 3645.55,-190"/>
<text text-anchor="middle" x="3602" y="-167.8" font-family="Times,serif" font-size="14.00">AuthModule</text>
</g>
<!-- LoginComponent&#45;&gt;AuthModule -->
<g id="edge22" class="edge">
<title>LoginComponent&#45;&gt;AuthModule</title>
<path fill="none" stroke="black" d="M3741,-122.22C3741,-142.37 3741,-172 3741,-172 3741,-172 3655.6,-172 3655.6,-172"/>
<polygon fill="black" stroke="black" points="3655.6,-168.5 3645.6,-172 3655.6,-175.5 3655.6,-168.5"/>
</g>
<!-- RegisterComponent -->
<g id="node24" class="node">
<title>RegisterComponent</title>
<polygon fill="#ffffb3" stroke="black" points="3665.98,-122 3538.02,-122 3538.02,-86 3665.98,-86 3665.98,-122"/>
<text text-anchor="middle" x="3602" y="-99.8" font-family="Times,serif" font-size="14.00">RegisterComponent</text>
</g>
<!-- RegisterComponent&#45;&gt;AuthModule -->
<g id="edge23" class="edge">
<title>RegisterComponent&#45;&gt;AuthModule</title>
<path fill="none" stroke="black" d="M3602,-122.22C3602,-122.22 3602,-143.73 3602,-143.73"/>
<polygon fill="black" stroke="black" points="3598.5,-143.73 3602,-153.73 3605.5,-143.73 3598.5,-143.73"/>
</g>
<!-- AuthRoutingModule -->
<g id="node26" class="node">
<title>AuthRoutingModule</title>
<polygon fill="#8dd3c7" stroke="black" points="3514.17,-122 3511.17,-126 3490.17,-126 3487.17,-122 3381.83,-122 3381.83,-86 3514.17,-86 3514.17,-122"/>
<text text-anchor="middle" x="3448" y="-99.8" font-family="Times,serif" font-size="14.00">AuthRoutingModule</text>
</g>
<!-- AuthRoutingModule&#45;&gt;AuthModule -->
<g id="edge24" class="edge">
<title>AuthRoutingModule&#45;&gt;AuthModule</title>
<path fill="none" stroke="black" d="M3448,-122.22C3448,-142.37 3448,-172 3448,-172 3448,-172 3548.28,-172 3548.28,-172"/>
<polygon fill="black" stroke="black" points="3548.28,-175.5 3558.28,-172 3548.28,-168.5 3548.28,-175.5"/>
</g>
<!-- EditorComponent -->
<g id="node27" class="node">
<title>EditorComponent</title>
<polygon fill="#ffffb3" stroke="black" points="4144.33,-122 4027.67,-122 4027.67,-86 4144.33,-86 4144.33,-122"/>
<text text-anchor="middle" x="4086" y="-99.8" font-family="Times,serif" font-size="14.00">EditorComponent</text>
</g>
<!-- DashboardModule -->
<g id="node28" class="node">
<title>DashboardModule</title>
<polygon fill="#8dd3c7" stroke="black" points="4056.19,-190 4053.19,-194 4032.19,-194 4029.19,-190 3935.81,-190 3935.81,-154 4056.19,-154 4056.19,-190"/>
<text text-anchor="middle" x="3996" y="-167.8" font-family="Times,serif" font-size="14.00">DashboardModule</text>
</g>
<!-- EditorComponent&#45;&gt;DashboardModule -->
<g id="edge25" class="edge">
<title>EditorComponent&#45;&gt;DashboardModule</title>
<path fill="none" stroke="black" d="M4041.97,-122.22C4041.97,-122.22 4041.97,-143.73 4041.97,-143.73"/>
<polygon fill="black" stroke="black" points="4038.47,-143.73 4041.97,-153.73 4045.47,-143.73 4038.47,-143.73"/>
</g>
<!-- DashboardComponent  -->
<g id="node30" class="node">
<title>DashboardComponent </title>
<polygon fill="#80b1d3" stroke="black" points="4068.97,-258 3923.03,-258 3923.03,-222 4068.97,-222 4068.97,-258"/>
<text text-anchor="middle" x="3996" y="-235.8" font-family="Times,serif" font-size="14.00">DashboardComponent </text>
</g>
<!-- DashboardModule&#45;&gt;DashboardComponent  -->
<g id="edge27" class="edge">
<title>DashboardModule&#45;&gt;DashboardComponent </title>
<path fill="none" stroke="black" stroke-dasharray="1,5" d="M3996,-190.22C3996,-190.22 3996,-211.73 3996,-211.73"/>
<polygon fill="black" stroke="black" points="3992.5,-211.73 3996,-221.73 3999.5,-211.73 3992.5,-211.73"/>
</g>
<!-- DashboardRoutingModule -->
<g id="node29" class="node">
<title>DashboardRoutingModule</title>
<polygon fill="#8dd3c7" stroke="black" points="4003.81,-122 4000.81,-126 3979.81,-126 3976.81,-122 3838.19,-122 3838.19,-86 4003.81,-86 4003.81,-122"/>
<text text-anchor="middle" x="3921" y="-99.8" font-family="Times,serif" font-size="14.00">DashboardRoutingModule</text>
</g>
<!-- DashboardRoutingModule&#45;&gt;DashboardModule -->
<g id="edge26" class="edge">
<title>DashboardRoutingModule&#45;&gt;DashboardModule</title>
<path fill="none" stroke="black" d="M3969.78,-122.22C3969.78,-122.22 3969.78,-143.73 3969.78,-143.73"/>
<polygon fill="black" stroke="black" points="3966.28,-143.73 3969.78,-153.73 3973.28,-143.73 3966.28,-143.73"/>
</g>
<!-- HeaderComponent -->
<g id="node31" class="node">
<title>HeaderComponent</title>
<polygon fill="#ffffb3" stroke="black" points="3341.74,-190 3220.26,-190 3220.26,-154 3341.74,-154 3341.74,-190"/>
<text text-anchor="middle" x="3281" y="-167.8" font-family="Times,serif" font-size="14.00">HeaderComponent</text>
</g>
<!-- HeaderComponent&#45;&gt;ThemeModule -->
<g id="edge28" class="edge">
<title>HeaderComponent&#45;&gt;ThemeModule</title>
<path fill="none" stroke="black" d="M3281,-153.78C3281,-133.63 3281,-104 3281,-104 3281,-104 3040.54,-104 3040.54,-104"/>
<polygon fill="black" stroke="black" points="3040.54,-100.5 3030.54,-104 3040.54,-107.5 3040.54,-100.5"/>
</g>
</g>
</svg>
